<svg width="10" height="178" viewBox="0 0 10 178" fill="none" xmlns="http://www.w3.org/2000/svg">
<path d="M6.31455 2.74629C5.80309 2.74336 5.38705 3.03677 5.151 3.38494C4.90707 3.73801 4.79001 4.1566 4.78804 4.57519C4.78902 5.18547 5.05459 5.74198 5.45884 6.14981C5.86211 6.55765 6.4198 6.83051 7.03748 6.83149C7.83811 6.83149 8.57775 6.52144 9.11773 6.00798C9.65771 5.49648 10.001 4.77079 9.99999 3.96393C10.002 2.94678 9.45806 1.84943 8.26597 0.896838C7.56566 0.334476 6.69322 -1.44544e-07 5.77457 -1.847e-07L5.57392 -1.9347e-07C2.50812 0.00684583 0.0127944 2.47049 7.78894e-06 5.55615L4.62466e-06 77.9464C4.43934e-06 82.1861 1.63766 86.3053 4.57461 89.3782L4.57461 88.6636C1.63766 91.7365 3.84365e-06 95.8139 3.65832e-06 100.054L4.94002e-07 172.445C0.0127868 175.529 2.71171 177.993 5.77751 178L5.7785 178C6.69715 178 7.56565 177.665 8.26596 177.103C9.45707 176.151 10.002 175.053 9.99999 174.037C10.001 173.229 9.65771 172.504 9.11772 171.992C8.57774 171.479 7.83909 171.169 7.03748 171.169C6.41979 171.169 5.8621 171.442 5.45883 171.85C5.05459 172.258 4.78901 172.814 4.78803 173.425C4.79 173.843 4.90706 174.262 5.15099 174.615C5.38705 174.963 5.80308 175.257 6.31454 175.254L6.31454 174.276C6.17881 174.273 6.07751 174.218 5.9585 174.057C5.84637 173.9 5.76964 173.65 5.7716 173.425C5.77062 173.107 5.91719 172.78 6.15915 172.537C6.40111 172.292 6.72175 172.146 7.03748 172.147C7.58238 172.147 8.0781 172.357 8.43808 172.698C8.7961 173.041 9.01641 173.506 9.01641 174.037C9.01543 174.699 8.67414 175.515 7.64827 176.342C7.10632 176.776 6.45519 177.022 5.7785 177.022L5.77751 177.022C4.51264 177.023 3.30676 176.505 2.42352 175.667C1.5383 174.83 0.983575 173.69 0.983575 172.445L0.983578 100.054C0.983578 96.0652 2.52484 92.2284 5.2877 89.3364L5.60933 89L5.2877 88.6636C2.52484 85.7715 0.983579 81.9348 0.983579 77.9464L0.983582 5.55615C0.983582 4.31015 1.53831 3.16978 2.42352 2.33259C3.30677 1.49638 4.32921 0.976064 5.59409 0.976064L5.77457 0.976064C6.45126 0.976064 7.10633 1.2235 7.64828 1.65774C8.67415 2.48515 9.01544 3.30083 9.01642 3.96393C9.01642 4.49401 8.79611 4.95857 8.43809 5.30185C8.0781 5.64318 7.58238 5.85347 7.03748 5.85347C6.72176 5.85445 6.40112 5.70775 6.15916 5.46422C5.9172 5.21971 5.77063 4.89305 5.77161 4.57519C5.76964 4.35122 5.84638 4.09987 5.95851 3.94339C6.07752 3.783 6.17881 3.72725 6.31455 3.72431L6.31455 2.74629Z" fill="#787E86"/>
<path d="M8.69065e-07 163.864C0.0127872 166.514 2.32321 168.621 4.95132 168.628C5.74605 168.628 6.49551 168.339 7.09943 167.855C8.11743 167.041 8.59251 166.093 8.59054 165.208C8.59153 164.505 8.29251 163.873 7.82237 163.427C7.3532 162.981 6.70993 162.711 6.01454 162.711C5.46964 162.713 4.98082 162.953 4.62772 163.31C4.27462 163.667 4.04151 164.154 4.03954 164.692C4.04151 165.06 4.1438 165.426 4.35921 165.739C4.56871 166.048 4.94344 166.314 5.40473 166.311L5.40473 165.333C5.31916 165.33 5.25819 165.302 5.1677 165.182C5.08311 165.064 5.02115 164.866 5.02312 164.692C5.02213 164.446 5.13621 164.188 5.32801 163.995C5.51981 163.803 5.7716 163.688 6.01454 163.689C6.4542 163.689 6.85355 163.86 7.14272 164.134C7.43091 164.41 7.60697 164.782 7.60697 165.208C7.60598 165.739 7.33352 166.405 6.48076 167.094C6.03618 167.45 5.50409 167.65 4.95132 167.65C3.9048 167.65 2.90647 167.222 2.17469 166.529C1.44193 165.835 0.983575 164.892 0.983575 163.864L8.69065e-07 163.864Z" fill="#787E86"/>
<path d="M5.40474 11.609C4.94344 11.6061 4.56871 11.8721 4.35921 12.1802C4.14381 12.4931 4.04152 12.8599 4.03955 13.2276C4.04152 13.7655 4.27462 14.2526 4.62773 14.6105C4.98083 14.9665 5.46965 15.2071 6.01455 15.2081C6.70994 15.2081 7.35321 14.9392 7.82237 14.4922C8.29252 14.0472 8.59153 13.4144 8.59055 12.7112C8.59252 11.8271 8.11743 10.8784 7.09944 10.0647C6.49552 9.58057 5.74605 9.29109 4.95231 9.29109L4.83624 9.29109C2.20813 9.29793 0.012794 11.4056 7.41744e-06 14.055L0.983582 14.055C0.983582 13.0271 1.44194 12.0843 2.1747 11.3909C2.90648 10.6985 3.78972 10.2672 4.83624 10.2672L4.83624 10.2692L4.95231 10.2672C5.5041 10.2672 6.03619 10.4696 6.48076 10.8256C7.33352 11.5141 7.60599 12.1802 7.60697 12.7112C7.60697 13.1376 7.43092 13.5093 7.14273 13.7851C6.85356 14.0599 6.45322 14.2301 6.01455 14.2301C5.77161 14.2311 5.51982 14.1176 5.32802 13.924C5.13622 13.7313 5.02214 13.4731 5.02312 13.2276C5.02116 13.0535 5.08312 12.855 5.16771 12.7386C5.2582 12.6173 5.31917 12.589 5.40474 12.587L5.40474 11.609Z" fill="#787E86"/>
</svg>
