<svg width="449" height="188" viewBox="0 0 449 188" fill="none" xmlns="http://www.w3.org/2000/svg">
<path opacity="0.95" d="M430.645 18.0455C430.647 18.0496 430.648 18.0537 430.649 18.0579C431.542 21.2309 433.879 24.1528 437.15 25.8707C439.245 26.9707 441.782 27.6632 443.999 28.0082C445.045 28.171 446.033 28.2586 446.886 28.2729C442.861 31.6422 438.458 32.1634 432.43 32.7243C432.232 32.7427 432.032 32.7612 431.831 32.7799C431.534 32.8073 431.233 32.8351 430.93 32.8635L430.25 32.9272V33.6102L430.249 177.497C430.249 182.919 426.073 187.25 420.999 187.25H9.99999C4.92562 187.25 0.75 182.919 0.75 177.497V10.5028C0.75 5.08138 4.9256 0.75 9.99998 0.75H420.999C426.073 0.75 430.249 5.08138 430.249 10.5028L430.25 15.2291V15.2818L430.25 15.2829C430.255 16.1983 430.388 17.1143 430.635 18.0087L430.635 18.0094L430.645 18.0455Z" fill="url(#paint0_radial)" stroke="#99918A" stroke-width="1.5"/>
<defs>
<radialGradient id="paint0_radial" cx="0" cy="0" r="1" gradientUnits="userSpaceOnUse" gradientTransform="translate(427.366 94.3686) rotate(-180) scale(420.707 897.096)">
<stop offset="0.318949" stop-color="#D2CDC8"/>
<stop offset="0.507359" stop-color="#E0DFDE"/>
<stop offset="0.683775" stop-color="#D2CDC8"/>
</radialGradient>
</defs>
</svg>
