<svg width="38" height="24" viewBox="0 0 38 24" fill="none" xmlns="http://www.w3.org/2000/svg">
<path d="M34.608 6.10352e-05H22.0646L20.8388 0.932058H17.1614L15.9356 6.10352e-05H3.39217L0.631104 1.2V23.3577H35.6003L37.9999 21.857V14.9994L37.0166 13.7995V10.1996L37.9999 8.9997V2.14224L34.608 6.10352e-05Z" fill="#5055A0"/>
<path d="M33.4724 22.8002H4.90315C2.87217 22.8002 1.22579 21.1884 1.22579 19.2003V2.48304L0 2.14331V9.00076L0.667963 9.33664V14.604L0 15.0005V21.8581L3.3917 24.0001H15.9354L17.1612 23.1801H20.8385L22.0642 24.0001H34.608L33.4724 22.8002Z" fill="#3F3F8F"/>
<path d="M36.8636 0.00384521L35.3561 0.329695L1.41602 21.6809L3.66965 23.1088L37.6229 1.62837L37.915 0.768158C37.7474 0.346043 37.3453 0.0377743 36.8636 0.00384521Z" fill="#E5646E"/>
<path d="M1.95118 21.339L0.0825195 23.2322C0.249733 23.6547 0.654296 23.9616 1.13612 23.9957L4.25581 22.7397C3.3142 22.5758 2.49877 22.0617 1.95118 21.339V21.339Z" fill="#DB4655"/>
<path d="M2.56081 0.248538L1.24804 0.0305786C0.571021 0.0305786 0.227539 0.66535 0.227539 1.32809V1.5563L35.4951 23.7519L37.8886 22.5259L2.56081 0.248538Z" fill="#E5646E"/>
<path d="M37.5821 22.7992H33.8384L35.3046 23.5015L36.8641 23.9959C37.3456 23.9616 37.7498 23.6551 37.9171 23.2329L37.5821 22.7992Z" fill="#DB4655"/>
<path d="M1.13379 0.00408936C0.655006 0.0406508 0.249142 0.346081 0.0825195 0.766574L1.2263 2.20345V0.048501L1.13379 0.00408936Z" fill="#DB4655"/>
<path d="M37.9999 10.1996L21.4517 9.59967L20.8388 6.10352e-05H17.1614L16.5485 9.59967H0.612549V14.3994H16.5485V23.4303H21.4517V14.3994L37.9999 13.7995V10.1996Z" fill="#E5646E"/>
<path d="M0 13.7995L1.22579 14.3994V9.59967L0 10.1996V13.7995Z" fill="#DB4655"/>
<path d="M20.8386 23.9991H17.1612L16.5483 22.7992H21.4515L20.8386 23.9991Z" fill="#DB4655"/>
<path d="M37.9993 13.7996H21.451C21.1125 13.7996 20.8381 14.0682 20.8381 14.3996V22.7993L21.4163 23.3652L22.0639 22.7993V16.0772L32.7076 22.7992L34.8151 23.4212L34.9687 22.7992L22.6187 14.9996H24.8802L37.23 22.7993L37.8138 23.0248L37.9993 22.7993V21.8572L27.1412 14.9996H37.9993V13.7996Z" fill="#F2F2F6"/>
<path d="M16.5483 13.7996H1.22579L0.612305 14.3996L1.22579 14.9996H10.8581L1.62308 20.8321L1.16894 21.7958L2.35933 21.795L13.1191 14.9996H15.3806L3.47609 22.5179L3.64597 23.2156L5.29169 22.7993L15.9354 16.0772V22.7993L16.5259 23.3578L17.1612 22.7993V14.3996C17.1612 14.0682 16.8868 13.7996 16.5483 13.7996V13.7996Z" fill="#F2F2F6"/>
<path d="M15.9356 6.10352e-05V7.92203L3.39217 6.10352e-05H1.22604C1.19798 6.10352e-05 1.16117 0.00224066 1.13356 0.00405699L15.3809 8.99962H13.1193L1.22604 1.48844L0.841363 2.02178L1.22604 2.91636L10.8583 8.99962H1.22604L0.612549 9.59959L1.22604 10.1996H16.5485C16.887 10.1996 17.1614 9.93097 17.1614 9.59959V6.10352e-05H15.9356Z" fill="#F2F2F6"/>
<path d="M0 8.99969H1.22635V10.2002H0V8.99969Z" fill="#E1E1E6"/>
<path d="M1.22635 1.48918L0.0827171 0.766602C0.0294782 0.901072 0 1.04783 0 1.20061V2.14329L1.22635 2.91777V1.48918Z" fill="#E1E1E6"/>
<path d="M37.9993 1.2C37.9993 1.04729 37.9673 0.902488 37.9141 0.768079L24.8802 8.9997H22.6186L36.8627 0.00376653C36.8351 0.0019502 36.8016 6.10352e-05 36.7735 6.10352e-05H34.6074L22.0639 7.92203V6.10352e-05H20.8381V9.59967C20.8381 9.93097 21.1125 10.1996 21.451 10.1996H37.9993V8.9997H27.1413L37.9993 2.14224V1.2Z" fill="#F2F2F6"/>
<path d="M0 13.7996H1.22635V15.0001H0V13.7996Z" fill="#E1E1E6"/>
<path d="M2.36041 21.7954C2.06414 21.5171 1.81205 21.1937 1.62382 20.832L0 21.8575V22.8C0 22.9529 0.0291812 23.099 0.0823459 23.2335L2.36041 21.7954Z" fill="#E1E1E6"/>
<path d="M15.9353 22.7993H17.1617V23.9998H15.9353V22.7993Z" fill="#E1E1E6"/>
<path d="M20.8381 22.7993H22.0645V23.9998H20.8381V22.7993Z" fill="#E1E1E6"/>
<path d="M3.39138 23.999L5.29137 22.799H4.90291C4.39674 22.799 3.91462 22.6987 3.47584 22.5177L1.13574 23.9952C1.16343 23.9971 1.19742 23.999 1.22555 23.999H3.39138Z" fill="#E1E1E6"/>
<path d="M20.8381 22.7993H22.0645V23.9998H20.8381V22.7993Z" fill="#E1E1E6"/>
<path d="M37.9172 23.2333C37.9704 23.0988 37.9996 22.9521 37.9996 22.7993H37.23L37.9172 23.2333Z" fill="#E1E1E6"/>
<path d="M34.9693 22.7993H32.7083L34.6082 23.9992H36.7741C36.8023 23.9992 36.8366 23.9975 36.8643 23.9956L34.9693 22.7993Z" fill="#E1E1E6"/>
</svg>
