<svg width="38" height="24" viewBox="0 0 38 24" fill="none" xmlns="http://www.w3.org/2000/svg">
<path d="M37.9996 8.00002V1.2C37.9996 0.537225 37.4508 0 36.7738 0H1.22561L0.568848 1.2V8.00002L1.83828 9.60006H36.161L37.9996 8.00002Z" fill="#F2F2F6"/>
<path d="M0 1.2V8.00001L1.22579 9.06683V0C0.548845 0 0 0.537224 0 1.2V1.2Z" fill="#E1E1E6"/>
<path d="M0.580322 16.0001V22.2799C0.580322 22.9426 1.12917 23.4799 1.80611 23.4799H36.7742L38 22.8002V16.0001L36.1616 14.4001H1.83884L0.580322 16.0001Z" fill="#E5646E"/>
<path d="M1.22579 19.2V14.9333L0 16V22.8C0 23.4628 0.548845 24 1.22579 24H36.774C37.451 24 37.9998 23.4628 37.9998 22.8H4.90324C2.87225 22.8 1.22579 21.1883 1.22579 19.2Z" fill="#DB4655"/>
<path d="M0.643555 14.979L1.22609 16H38.0001V8H1.22609L0.643555 9.26328V14.979Z" fill="#5055A0"/>
<path d="M0 8H1.22579V16H0V8Z" fill="#3F3F8F"/>
</svg>
