<svg width="17" height="17" viewBox="0 0 17 17" fill="none" xmlns="http://www.w3.org/2000/svg">
<path d="M5.54989 9.90098C3.71329 7.35839 4.32754 3.83766 6.92098 2.03751C9.51442 0.237358 13.1056 0.83913 14.9417 3.38214C16.7779 5.92472 16.1641 9.44502 13.5702 11.2452C11.7191 12.53 9.27179 12.629 7.31936 11.4985L3.0771 15.6326C2.61905 16.1054 1.85694 16.1243 1.37476 15.6752C0.892575 15.2266 0.873271 14.4794 1.33088 14.0067C1.34536 13.9916 1.3594 13.9779 1.37476 13.9637L5.54989 9.90098ZM10.2493 10.2864C12.2987 10.2868 13.9603 8.65915 13.9616 6.64995C13.962 4.64074 12.3018 3.01179 10.252 3.01093C8.20519 3.01007 6.54453 4.63515 6.54058 6.64177C6.53707 8.65141 8.19642 10.2829 10.2467 10.2864C10.2476 10.2864 10.248 10.2864 10.2493 10.2864Z" fill="url(#paint0_linear)" stroke="black"/>
<defs>
<linearGradient id="paint0_linear" x1="8.5" y1="0.999999" x2="8.5" y2="16" gradientUnits="userSpaceOnUse">
<stop stop-color="#DBB67B"/>
<stop offset="1" stop-color="#4C3F2A"/>
</linearGradient>
</defs>
</svg>
