<svg width="38" height="24" viewBox="0 0 38 24" fill="none" xmlns="http://www.w3.org/2000/svg">
<path d="M37.9998 7.99999V1.2C37.9998 0.537223 37.451 0 36.774 0H1.22561L0.568848 1.2V7.99999L1.83828 9.60003H36.1612L37.9998 7.99999Z" fill="#5D5360"/>
<path d="M0 1.19999V7.99998L1.2258 9.0668V0C0.548847 0 0 0.537222 0 1.19999V1.19999Z" fill="#4B3F4E"/>
<path d="M0.580322 15.9999V22.2796C0.580322 22.9424 1.12917 23.4796 1.80612 23.4796H36.7743L38.0001 22.7999V15.9999L36.1617 14.3999H1.83885L0.580322 15.9999Z" fill="#FFE07D"/>
<path d="M1.2258 19.2V14.9333L0 16V22.8C0 23.4627 0.548848 23.9999 1.2258 23.9999H36.7742C37.4511 23.9999 38 23.4627 38 22.8H4.90326C2.87226 22.8 1.2258 21.1882 1.2258 19.2Z" fill="#FFD064"/>
<path d="M0.643066 14.9789L1.22561 15.9999H37.9998V7.99994H1.22561L0.643066 9.26322V14.9789Z" fill="#E5646E"/>
<path d="M0 7.99994H1.2258V15.9999H0V7.99994Z" fill="#DB4655"/>
</svg>
